<svg width="21px" height="48px" viewBox="0 0 21 48" version="1.1" xmlns="http://www.w3.org/2000/svg" xmlns:xlink="http://www.w3.org/1999/xlink">
    <g stroke="none" stroke-width="1" fill="none" fill-rule="evenodd">
        <g transform="translate(0.000000, 10.000000)" fill="#FFFFFF" fill-rule="nonzero">
            <path d="M5.81,19.84 L5.81,9.11 C5.73134349,7.43173813 6.58190871,5.84617765 8.02363055,4.98351441 C9.4653524,4.12085117 11.2646476,4.12085117 12.7063694,4.98351441 C14.1480913,5.84617765 14.9986565,7.43173813 14.92,9.11 L14.92,12.84 L18.47,12.84 L18.47,9.1 C18.47,4.6237321 14.8412679,0.995 10.365,0.995 C5.8887321,0.995 2.26,4.6237321 2.26,9.1 L2.26,19.84 L5.81,19.84 Z"></path>
            <path d="M18.62,11.93 L2.14,11.93 C0.958110635,11.93 1.44739703e-16,12.8881106 0,14.07 L0,25.86 C1.44739703e-16,27.0418894 0.958110635,28 2.14,28 L18.59,28 C19.7718894,28 20.73,27.0418894 20.73,25.86 L20.73,14.06 C20.724664,12.8936237 19.786274,11.946339 18.62,11.93 Z M11.62,20.49 C11.4750864,20.5827759 11.3940676,20.7486715 11.41,20.92 C11.41,21.79 11.41,22.65 11.41,23.51 C11.4319355,23.871119 11.2401869,24.2115706 10.92,24.38 C10.6093942,24.5641828 10.2236162,24.566601 9.91072583,24.3863264 C9.59783547,24.2060518 9.4064415,23.8710909 9.41,23.51 C9.41,22.64 9.41,21.78 9.41,20.91 C9.42704295,20.7487655 9.35403529,20.5912226 9.22,20.5 C8.45732199,19.9446885 8.18641799,18.9319243 8.57,18.07 C8.92606415,17.1661673 9.88011249,16.6488998 10.8318245,16.8436803 C11.7835365,17.0384607 12.4576545,17.888954 12.43,18.86 C12.457429,19.5015909 12.1606068,20.1140216 11.64,20.49 L11.62,20.49 Z"></path>
        </g>
    </g>
</svg>