<svg width="16px" height="16px" viewBox="0 0 16 16" version="1.1" xmlns="http://www.w3.org/2000/svg" xmlns:xlink="http://www.w3.org/1999/xlink">
    <g stroke="none" stroke-width="1" fill="none" fill-rule="evenodd">
        <path d="M2,2 L2,11 L14,11 L14,2 L2,2 Z M2,0 L14,0 C15.1045695,0 16,0.8954305 16,2 L16,11 C16,12.1045695 15.1045695,13 14,13 L2,13 C0.8954305,13 0,12.1045695 0,11 L0,2 C0,0.8954305 0.8954305,0 2,0 Z" fill="#555D67" fill-rule="nonzero"></path>
        <path d="M6,14 L6,13 L10,13 L10,14 L13,14 L13,16 L3,16 L3,14 L6,14 Z" id="Combined-Shape" fill="#555D67"></path>
    </g>
</svg>