<svg width="62px" height="17px" viewBox="0 0 62 17" version="1.1" xmlns="http://www.w3.org/2000/svg" xmlns:xlink="http://www.w3.org/1999/xlink">
    <g id="Artboard Copy 4--Artboard-Copy-4" stroke="none" stroke-width="1" fill="none" fill-rule="evenodd">
        <path d="M6.73913043,10.912841 C6.73913043,11.516082 6.58776476,12.0516721 6.28502887,12.5196274 C5.98229298,12.9875827 5.5457456,13.3512961 4.97537364,13.6107784 C4.40500168,13.8702608 3.73592152,14 2.96811311,14 C2.32754152,14 1.79008369,13.9545358 1.35572351,13.8636061 C0.921363317,13.7726764 0.469460001,13.6141063 0,13.3878909 L0,11.0459082 C0.495784861,11.3031727 1.01130563,11.5038804 1.54657779,11.6480373 C2.08184994,11.7921941 2.57323995,11.8642715 3.02076257,11.8642715 C3.40686051,11.8642715 3.68984851,11.7966296 3.86973505,11.661344 C4.0496216,11.5260583 4.13956352,11.3519638 4.13956352,11.1390552 C4.13956352,11.0059874 4.10336738,10.8895547 4.03097401,10.7897538 C3.95858065,10.6899529 3.84231426,10.5890446 3.68217136,10.4870259 C3.52202847,10.3850073 3.09535276,10.1765374 2.40213145,9.86161011 C1.77472229,9.57329641 1.30417248,9.29385808 0.990467901,9.02328676 C0.67676332,8.75271544 0.444230546,8.44222841 0.292862602,8.09181637 C0.141494658,7.74140432 0.0658118206,7.32668237 0.0658118206,6.84763806 C0.0658118206,5.95164777 0.388286517,5.25305196 1.03324558,4.75182967 C1.67820465,4.25060739 2.56446164,4 3.69204314,4 C4.68800034,4 5.70368594,4.23286527 6.73913043,4.69860279 L5.9428074,6.72787758 C5.04337469,6.3109316 4.26680297,6.10246174 3.61306895,6.10246174 C3.27523325,6.10246174 3.02953824,6.16234138 2.87597656,6.28210246 C2.72241488,6.40186354 2.64563519,6.55045376 2.64563519,6.72787758 C2.64563519,6.91860818 2.74325508,7.08937605 2.93849779,7.24018629 C3.1337405,7.39099654 3.66352036,7.66599933 4.52785326,8.06520293 C5.35708635,8.44222854 5.93293402,8.84697056 6.25541355,9.27944112 C6.57789309,9.71191168 6.73913043,10.2563729 6.73913043,10.912841 Z M13.6501237,13.8669328 L7.93765771,13.8669328 L7.93765771,4.13972056 L13.6501237,4.13972056 L13.6501237,6.24883566 L10.5372246,6.24883566 L10.5372246,7.77910845 L13.4197824,7.77910845 L13.4197824,9.88822355 L10.5372246,9.88822355 L10.5372246,11.7245509 L13.6501237,11.7245509 L13.6501237,13.8669328 Z M19.2909489,13.8669328 L16.691382,13.8669328 L16.691382,6.28875582 L14.3419,6.28875582 L14.3419,4.13972056 L21.6338497,4.13972056 L21.6338497,6.28875582 L19.2909489,6.28875582 L19.2909489,13.8669328 Z M27.2351878,13.8669328 L24.6356209,13.8669328 L24.6356209,6.28875582 L22.2861389,6.28875582 L22.2861389,4.13972056 L29.5780886,4.13972056 L29.5780886,6.28875582 L27.2351878,6.28875582 L27.2351878,13.8669328 Z M30.6647358,13.8669328 L30.6647358,4.13972056 L33.2774651,4.13972056 L33.2774651,13.8669328 L30.6647358,13.8669328 Z M44.2293042,13.8669328 L40.8202518,13.8669328 L37.3059006,7.01397206 L37.24667,7.01397206 C37.330032,8.09182176 37.3717124,8.91461238 37.3717124,9.4823686 L37.3717124,13.8669328 L35.0682987,13.8669328 L35.0682987,4.13972056 L38.4641887,4.13972056 L41.9653775,10.8995343 L42.0048646,10.8995343 C41.9434399,9.91926766 41.9127281,9.13196128 41.9127281,8.53759148 L41.9127281,4.13972056 L44.2293042,4.13972056 L44.2293042,13.8669328 Z M49.8832917,8.17165669 L54.0360176,8.17165669 L54.0360176,13.4145043 C52.9084361,13.8048367 51.6689925,14 50.3176497,14 C48.8346826,14 47.6884715,13.5653182 46.8789821,12.6959415 C46.0694926,11.8265647 45.664754,10.5868344 45.664754,8.97671324 C45.664754,7.40651244 46.1078825,6.18452422 46.9941528,5.31071191 C47.880423,4.4368996 49.1220603,4 50.7191018,4 C51.3245736,4 51.8960338,4.05766188 52.4334997,4.17298736 C52.9709656,4.28831284 53.4393217,4.4346853 53.8385821,4.61210912 L53.0159343,6.6746507 C52.322713,6.32867425 51.5614973,6.15568862 50.7322642,6.15568862 C49.9732307,6.15568862 49.3864145,6.40518713 48.971798,6.90419162 C48.5571814,7.40319611 48.3498763,8.11620739 48.3498763,9.04324684 C48.3498763,9.95254391 48.5374381,10.6455953 48.9125673,11.1224218 C49.2876966,11.5992483 49.828445,11.837658 50.5348287,11.837658 C50.9209267,11.837658 51.2763069,11.799956 51.6009802,11.7245509 L51.6009802,10.2009315 L49.8832917,10.2009315 L49.8832917,8.17165669 Z M62,10.912841 C62,11.516082 61.8486343,12.0516721 61.5458984,12.5196274 C61.2431625,12.9875827 60.8066152,13.3512961 60.2362432,13.6107784 C59.6658712,13.8702608 58.9967911,14 58.2289827,14 C57.5884111,14 57.0509533,13.9545358 56.6165931,13.8636061 C56.1822329,13.7726764 55.7303296,13.6141063 55.2608696,13.3878909 L55.2608696,11.0459082 C55.7566544,11.3031727 56.2721752,11.5038804 56.8074474,11.6480373 C57.3427195,11.7921941 57.8341095,11.8642715 58.2816321,11.8642715 C58.6677301,11.8642715 58.9507181,11.7966296 59.1306046,11.661344 C59.3104912,11.5260583 59.4004331,11.3519638 59.4004331,11.1390552 C59.4004331,11.0059874 59.3642369,10.8895547 59.2918436,10.7897538 C59.2194502,10.6899529 59.1031838,10.5890446 58.9430409,10.4870259 C58.782898,10.3850073 58.3562223,10.1765374 57.663001,9.86161011 C57.0355919,9.57329641 56.565042,9.29385808 56.2513375,9.02328676 C55.9376329,8.75271544 55.7051001,8.44222841 55.5537322,8.09181637 C55.4023642,7.74140432 55.3266814,7.32668237 55.3266814,6.84763806 C55.3266814,5.95164777 55.6491561,5.25305196 56.2941152,4.75182967 C56.9390742,4.25060739 57.8253312,4 58.9529127,4 C59.9488699,4 60.9645555,4.23286527 62,4.69860279 L61.203677,6.72787758 C60.3042443,6.3109316 59.5276725,6.10246174 58.8739385,6.10246174 C58.5361028,6.10246174 58.2904078,6.16234138 58.1368461,6.28210246 C57.9832844,6.40186354 57.9065048,6.55045376 57.9065048,6.72787758 C57.9065048,6.91860818 58.0041246,7.08937605 58.1993674,7.24018629 C58.3946101,7.39099654 58.9243899,7.66599933 59.7887228,8.06520293 C60.6179559,8.44222854 61.1938036,8.84697056 61.5162831,9.27944112 C61.8387627,9.71191168 62,10.2563729 62,10.912841 Z" id="Artboard Copy 4--SETTINGS" fill="#555D67"></path>
    </g>
</svg>