<svg width="24px" height="17px" viewBox="0 0 24 17" version="1.1" xmlns="http://www.w3.org/2000/svg" xmlns:xlink="http://www.w3.org/1999/xlink">
    <g id="Artboard Copy 3--Artboard-Copy-3" stroke="none" stroke-width="1" fill="none" fill-rule="evenodd">
        <path d="M6.72535927,10.9169435 C6.72535927,11.5193829 6.57430291,12.0542612 6.27218565,12.5215947 C5.97006839,12.9889281 5.53441308,13.3521582 4.96520665,13.6112957 C4.39600022,13.8704332 3.72828731,14 2.96204788,14 C2.32278528,14 1.78642572,13.9545962 1.35295313,13.8637874 C0.919480545,13.7729785 0.468500677,13.6146191 0,13.3887043 L0,11.0498339 C0.494771743,11.3067565 1.00923907,11.5071975 1.54341741,11.6511628 C2.07759575,11.7951281 2.56798163,11.8671096 3.01458975,11.8671096 C3.39989872,11.8671096 3.68230844,11.7995577 3.86182739,11.6644518 C4.04134634,11.5293459 4.13110447,11.3554828 4.13110447,11.1428571 C4.13110447,11.0099661 4.0949823,10.8936882 4.02273687,10.7940199 C3.95049144,10.6943517 3.83446264,10.5935775 3.67464698,10.4916944 C3.51483133,10.3898112 3.08902752,10.1816184 2.39722279,9.86710963 C1.77109571,9.57917907 1.30150745,9.30011209 0.988443916,9.02990033 C0.67538038,8.75968857 0.443322777,8.44961415 0.292264148,8.09966777 C0.141205518,7.7497214 0.0656773366,7.33555056 0.0656773366,6.85714286 C0.0656773366,5.96234326 0.387493068,5.26467581 1.03113418,4.7641196 C1.6747753,4.26356339 2.55922126,4.01328904 3.68449858,4.01328904 C4.67842058,4.01328904 5.69203067,4.24584485 6.72535927,4.71096346 L5.9306635,6.73754153 C5.03306874,6.32114963 4.25808392,6.11295681 3.60568578,6.11295681 C3.26854043,6.11295681 3.0233475,6.17275688 2.87009961,6.2923588 C2.71685173,6.41196073 2.64022893,6.56035349 2.64022893,6.73754153 C2.64022893,6.92801867 2.73764934,7.0985596 2.93249308,7.24916944 C3.12733682,7.39977927 3.65603409,7.67441661 4.51860076,8.0730897 C5.34613934,8.44961429 5.92081029,8.85381844 6.24263085,9.28571429 C6.5644514,9.71761013 6.72535927,10.2613478 6.72535927,10.9169435 Z M13.6222302,13.8671096 L7.9214374,13.8671096 L7.9214374,4.15282392 L13.6222302,4.15282392 L13.6222302,6.25913621 L10.5156922,6.25913621 L10.5156922,7.78737542 L13.3923595,7.78737542 L13.3923595,9.89368771 L10.5156922,9.89368771 L10.5156922,11.7275748 L13.6222302,11.7275748 L13.6222302,13.8671096 Z M24,8.99667774 C24,10.6312374 23.6037507,11.8737499 22.8112402,12.7242525 C22.0187297,13.5747551 20.8584417,14 19.3303414,14 C17.8241336,14 16.6693186,13.5725403 15.8658619,12.717608 C15.0624051,11.8626757 14.6606827,10.6179484 14.6606827,8.9833887 C14.6606827,7.36654784 15.0602159,6.13178721 15.8592941,5.27906977 C16.6583724,4.42635233 17.819755,4 19.3434768,4 C20.8715772,4 22.029676,4.4230301 22.8178079,5.26910299 C23.6059399,6.11517588 24,7.35768837 24,8.99667774 Z M17.3928599,8.99667774 C17.3928599,10.874871 18.0386806,11.8139535 19.3303414,11.8139535 C19.987118,11.8139535 20.4742201,11.5858273 20.7916621,11.1295681 C21.1091042,10.6733089 21.2678228,9.96235256 21.2678228,8.99667774 C21.2678228,8.02657322 21.1069149,7.31007983 20.7850944,6.84717608 C20.4632738,6.38427233 19.9827394,6.15282392 19.3434768,6.15282392 C18.0430591,6.15282392 17.3928599,7.10076571 17.3928599,8.99667774 Z" id="Artboard Copy 3--SEO" fill="#555D67"></path>
    </g>
</svg>