<svg width="78px" height="17px" viewBox="0 0 78 17" version="1.1" xmlns="http://www.w3.org/2000/svg" xmlns:xlink="http://www.w3.org/1999/xlink">
    <g stroke="none" stroke-width="1" fill="none" fill-rule="evenodd">
        <path d="M0,13.4262695 L0,4.14599609 L2.48605219,4.14599609 L2.48605219,11.4013672 L6.0294633,11.4013672 L6.0294633,13.4262695 L0,13.4262695 Z M15.5778818,8.7734375 C15.5778818,10.3349687 15.1981595,11.5219686 14.4387034,12.3344727 C13.6792474,13.1469767 12.5673533,13.5532227 11.1029878,13.5532227 C9.65960178,13.5532227 8.55295248,13.1448609 7.78300673,12.328125 C7.01306098,11.5113891 6.62809388,10.3222734 6.62809388,8.76074219 C6.62809388,7.21613811 7.01096307,6.03654379 7.77671293,5.22192383 C8.54246279,4.40730387 9.65540583,4 11.1155754,4 C12.5799409,4 13.6897371,4.40413007 14.4449972,5.21240234 C15.2002574,6.02067461 15.5778818,7.20767446 15.5778818,8.7734375 Z M9.24631593,8.7734375 C9.24631593,10.5677173 9.86520038,11.4648438 11.1029878,11.4648438 C11.7323713,11.4648438 12.199157,11.2469097 12.503359,10.8110352 C12.807561,10.3751606 12.9596597,9.69596815 12.9596597,8.7734375 C12.9596597,7.84667505 12.8054631,7.16219297 12.4970652,6.7199707 C12.1886673,6.27774844 11.7281753,6.05664062 11.1155754,6.05664062 C9.8693962,6.05664062 9.24631593,6.96223053 9.24631593,8.7734375 Z M25.5731603,8.7734375 C25.5731603,10.3349687 25.193438,11.5219686 24.4339819,12.3344727 C23.6745259,13.1469767 22.5626318,13.5532227 21.0982663,13.5532227 C19.6548803,13.5532227 18.548231,13.1448609 17.7782852,12.328125 C17.0083395,11.5113891 16.6233724,10.3222734 16.6233724,8.76074219 C16.6233724,7.21613811 17.0062416,6.03654379 17.7719914,5.22192383 C18.5377413,4.40730387 19.6506843,4 21.1108539,4 C22.5752194,4 23.6850156,4.40413007 24.4402757,5.21240234 C25.1955359,6.02067461 25.5731603,7.20767446 25.5731603,8.7734375 Z M19.2415944,8.7734375 C19.2415944,10.5677173 19.8604789,11.4648438 21.0982663,11.4648438 C21.7276498,11.4648438 22.1944355,11.2469097 22.4986375,10.8110352 C22.8028395,10.3751606 22.9549382,9.69596815 22.9549382,8.7734375 C22.9549382,7.84667505 22.8007416,7.16219297 22.4923437,6.7199707 C22.1839458,6.27774844 21.7234538,6.05664062 21.1108539,6.05664062 C19.8646747,6.05664062 19.2415944,6.96223053 19.2415944,8.7734375 Z M34.8194762,13.4262695 L32.0124401,13.4262695 L30.193531,9.87792969 L29.457156,10.3222656 L29.457156,13.4262695 L26.9585162,13.4262695 L26.9585162,4.14599609 L29.457156,4.14599609 L29.457156,8.17675781 C29.5830327,7.92708208 29.8368802,7.53141547 30.2187062,6.98974609 L32.1509037,4.14599609 L34.8698266,4.14599609 L31.9683834,8.30371094 L34.8194762,13.4262695 Z M44.7965926,13.4262695 L44.1735061,12.7788086 C43.795876,13.0200207 43.4864338,13.1861161 43.2451701,13.2770996 C43.0039065,13.3680831 42.7332757,13.4368487 42.4332695,13.4833984 C42.1332634,13.5299481 41.7902546,13.5532227 41.4042328,13.5532227 C40.7412822,13.5532227 40.1549154,13.438966 39.6451148,13.2104492 C39.1353142,12.9819325 38.7451023,12.6624369 38.4744674,12.2519531 C38.2038326,11.8414693 38.0685172,11.3738633 38.0685172,10.8491211 C38.0685172,9.74039159 38.6391496,8.89193002 39.7804316,8.30371094 C39.5202864,8.0074855 39.3178378,7.69327966 39.1730796,7.36108398 C39.0283214,7.02888831 38.9559434,6.65332241 38.9559434,6.234375 C38.9559434,5.55728828 39.2150357,5.01985876 39.7332281,4.62207031 C40.2514204,4.22428187 40.963662,4.02539062 41.8699742,4.02539062 C42.7553069,4.02539062 43.4444714,4.22322393 43.9374885,4.61889648 C44.4305055,5.01456904 44.6770103,5.55305649 44.6770103,6.234375 C44.6770103,6.70410391 44.5437928,7.13891402 44.2773538,7.53881836 C44.0109148,7.9387227 43.5902832,8.31428861 43.0154463,8.66552734 L44.2679131,9.86523438 C44.5826049,9.3785783 44.8007878,8.82845359 44.9224686,8.21484375 L47.4777527,8.21484375 C47.351876,8.79883104 47.1536232,9.38386751 46.8829883,9.9699707 C46.6123534,10.5560739 46.307107,11.0585917 45.9672399,11.4775391 L47.9812569,13.4262695 L44.7965926,13.4262695 Z M40.6049198,10.6713867 C40.6049198,10.9379896 40.6993259,11.1559236 40.8881409,11.3251953 C41.0769559,11.494467 41.3266076,11.5791016 41.6371035,11.5791016 C41.8762692,11.5791016 42.0860605,11.5473636 42.2664838,11.4838867 C42.446907,11.4204098 42.5853693,11.3484705 42.6818748,11.2680664 L41.1210116,9.66845703 C40.7769487,9.92659634 40.6049198,10.2609029 40.6049198,10.6713867 Z M42.4615917,6.234375 C42.4615917,6.02701719 42.4018011,5.87784876 42.2822183,5.78686523 C42.1626354,5.69588171 42.0126346,5.65039062 41.8322114,5.65039062 C41.655984,5.65039062 41.5017874,5.70328723 41.3696168,5.80908203 C41.2374463,5.91487683 41.171362,6.08414597 41.171362,6.31689453 C41.171362,6.63427893 41.3559784,6.96223789 41.7252167,7.30078125 C41.9643824,7.16536391 42.1469009,7.00350029 42.2727776,6.81518555 C42.3986543,6.6268708 42.4615917,6.43326922 42.4615917,6.234375 Z M54.1506225,13.4262695 L51.7023331,13.4262695 L51.7023331,4.14599609 L57.1401789,4.14599609 L57.1401789,6.15820312 L54.1506225,6.15820312 L54.1506225,7.92919922 L56.9073082,7.92919922 L56.9073082,9.94140625 L54.1506225,9.94140625 L54.1506225,13.4262695 Z M63.8375046,13.4262695 L58.3744836,13.4262695 L58.3744836,4.14599609 L63.8375046,4.14599609 L63.8375046,6.15820312 L60.8605358,6.15820312 L60.8605358,7.61816406 L63.6172215,7.61816406 L63.6172215,9.63037109 L60.8605358,9.63037109 L60.8605358,11.3823242 L63.8375046,11.3823242 L63.8375046,13.4262695 Z M70.6355312,13.4262695 L65.1725101,13.4262695 L65.1725101,4.14599609 L70.6355312,4.14599609 L70.6355312,6.15820312 L67.6585623,6.15820312 L67.6585623,7.61816406 L70.4152481,7.61816406 L70.4152481,9.63037109 L67.6585623,9.63037109 L67.6585623,11.3823242 L70.6355312,11.3823242 L70.6355312,13.4262695 Z M71.9705367,13.4262695 L71.9705367,4.14599609 L74.4565889,4.14599609 L74.4565889,11.4013672 L78,11.4013672 L78,13.4262695 L71.9705367,13.4262695 Z" fill="#555D67"></path>
    </g>
</svg>